Coordinates
version=1
nRows=130
nColumns=11
inDegrees=no

Units are S.I. units (second, meters, Newtons, ...)
If the header above contains a line with 'inDegrees', this indicates whether rotational values are in degrees (yes) or radians (no).

endheader
time	pelvis_tilt	pelvis_tx	pelvis_ty	hip_flexion_r	knee_angle_r	ankle_angle_r	hip_flexion_l	knee_angle_l	ankle_angle_l	lumbar_extension
0.01	0.0318903	0.374465	1.00568	0.0675227	-0.683776	0.20124	-0.0787178	0.0339222	0.204774	0
0.02	0.0281645	0.373511	1.00535	0.0713092	-0.681574	0.202893	-0.0744629	0.0356741	0.203522	0
0.03	0.023801	0.373151	1.00483	0.0785164	-0.681395	0.206096	-0.0686282	0.038794	0.201738	0
0.04	0.019301	0.371183	1.0047	0.0841538	-0.682101	0.20826	-0.0646963	0.041712	0.198679	0
0.05	0.0149619	0.369833	1.00447	0.0898509	-0.681685	0.208786	-0.0592917	0.0429686	0.195803	0
0.06	0.00880317	0.368226	1.00401	0.0983995	-0.681908	0.20758	-0.0500245	0.0413431	0.193313	0
0.07	0.00331246	0.366946	1.00352	0.105414	-0.681656	0.20799	-0.0427079	0.0415179	0.192141	0
0.08	-0.00138717	0.365472	1.00315	0.11191	-0.68172	0.208739	-0.0382746	0.0459482	0.189242	0
0.09	-0.00509727	0.364224	1.00295	0.116439	-0.680585	0.209006	-0.0372911	0.0541714	0.182947	0
0.1	-0.00898451	0.363125	1.00279	0.120056	-0.677877	0.210045	-0.0355002	0.0606586	0.1774	0
0.11	-0.0138065	0.361855	1.00247	0.125763	-0.676275	0.211818	-0.0326442	0.0680932	0.171646	0
0.12	-0.0192892	0.360261	1.00196	0.132164	-0.675167	0.214378	-0.0307793	0.078446	0.165183	0
0.13	-0.0242572	0.358665	1.00161	0.137444	-0.673512	0.212976	-0.0280209	0.0855489	0.160154	0
0.14	-0.0275985	0.357429	1.00134	0.140934	-0.671931	0.211909	-0.0261015	0.0906229	0.155468	0
0.15	-0.0333065	0.356335	1.00093	0.146394	-0.668225	0.212051	-0.0204501	0.0947531	0.151597	0
0.16	-0.036385	0.35545	1.00077	0.14825	-0.664915	0.214103	-0.0155633	0.0933903	0.150903	0
0.17	-0.0427325	0.353807	1.00031	0.155718	-0.661872	0.214475	-0.00701342	0.0954326	0.146614	0
0.18	-0.0464748	0.352398	0.999978	0.158908	-0.65801	0.214793	-0.00270828	0.0983708	0.143081	0
0.19	-0.0492788	0.351416	0.999715	0.160119	-0.654323	0.215753	-0.000830559	0.102113	0.140191	0
0.2	-0.0527145	0.350319	0.999456	0.162724	-0.65149	0.217662	0.00221702	0.105261	0.1371	0
0.21	-0.0561157	0.349081	0.99918	0.165473	-0.648726	0.223315	0.00673347	0.106683	0.135419	0
0.22	-0.0591737	0.348216	0.998993	0.165549	-0.643415	0.231762	0.00928757	0.109646	0.133389	0
0.23	-0.0627874	0.347558	0.998747	0.165625	-0.637493	0.236433	0.0112762	0.114075	0.131371	0
0.24	-0.066299	0.346489	0.998497	0.167171	-0.633855	0.235375	0.0122719	0.120642	0.126704	0
0.25	-0.0687207	0.345334	0.998325	0.168326	-0.631342	0.235794	0.0154311	0.120888	0.126919	0
0.26	-0.0708798	0.34434	0.998119	0.16832	-0.627683	0.239144	0.0195911	0.11786	0.130623	0
0.27	-0.0740405	0.343034	0.99785	0.169652	-0.623705	0.242951	0.0249025	0.115539	0.13138	0
0.28	-0.0770734	0.341815	0.997598	0.171143	-0.619992	0.246067	0.0285182	0.116435	0.129343	0
0.29	-0.0790793	0.340971	0.997354	0.170399	-0.615048	0.24958	0.02941	0.11902	0.127771	0
0.3	-0.0800084	0.340582	0.997271	0.166074	-0.607039	0.255262	0.0287332	0.120693	0.128349	0
0.31	-0.0806183	0.340144	0.997343	0.161323	-0.599094	0.257939	0.0287061	0.120443	0.128751	0
0.32	-0.081212	0.339652	0.997478	0.159028	-0.594763	0.255481	0.0311867	0.1161	0.128273	0
0.33	-0.0824041	0.339027	0.99752	0.15746	-0.590773	0.253987	0.0336631	0.112841	0.127681	0
0.34	-0.0834989	0.338504	0.997419	0.155228	-0.586219	0.255917	0.034637	0.111838	0.127905	0
0.35	-0.0846326	0.338051	0.99735	0.152965	-0.581476	0.258828	0.0352167	0.111776	0.12813	0
0.36	-0.0859936	0.337495	0.99728	0.151835	-0.578262	0.258224	0.0369241	0.110351	0.128802	0
0.37	-0.0869292	0.336751	0.997166	0.151663	-0.576446	0.259051	0.0394431	0.107253	0.13168	0
0.38	-0.0876429	0.336285	0.997108	0.150511	-0.573777	0.261287	0.0411098	0.103973	0.134132	0
0.39	-0.0880268	0.336047	0.997169	0.147692	-0.570011	0.2613	0.0409869	0.101782	0.138053	0
0.4	-0.0885962	0.335594	0.997283	0.145679	-0.56683	0.259332	0.0402365	0.102494	0.139285	0
0.41	-0.0891424	0.335154	0.997497	0.14344	-0.562651	0.257631	0.0381548	0.106282	0.136893	0
0.42	-0.089393	0.3348	0.997668	0.141204	-0.559285	0.257401	0.0369295	0.107534	0.134902	0
0.43	-0.0904981	0.334191	0.997703	0.140559	-0.557196	0.259566	0.0389416	0.104261	0.134485	0
0.44	-0.101777	0.331751	0.99689	0.154874	-0.557414	0.261084	0.0552637	0.100753	0.132635	0
0.45	-0.0903547	0.33401	0.997564	0.13646	-0.554943	0.256716	0.0395766	0.0983494	0.141044	0
0.46	-0.101178	0.33192	0.997047	0.149659	-0.554827	0.253777	0.0508391	0.10251	0.136596	0
0.47	-0.0901065	0.33397	0.997979	0.130408	-0.549825	0.255615	0.033701	0.103071	0.142311	0
0.48	-0.101049	0.33171	0.997292	0.145001	-0.550957	0.251941	0.0492491	0.0995729	0.143253	0
0.49	-0.0901943	0.333684	0.997748	0.128205	-0.550109	0.24962	0.036675	0.0923608	0.15448	0
0.5	-0.101075	0.331504	0.996857	0.143216	-0.55299	0.252946	0.0509842	0.0909653	0.152918	0
0.51	-0.090019	0.333573	0.997556	0.125048	-0.550376	0.254307	0.0342821	0.0903634	0.157784	0
0.52	-0.101332	0.331261	0.996848	0.140121	-0.552134	0.250339	0.0474913	0.0915901	0.151625	0
0.53	-0.0916365	0.332831	0.997454	0.125269	-0.551957	0.24838	0.0326451	0.0911656	0.15352	0
0.54	-0.103154	0.330472	0.996661	0.141143	-0.554972	0.247469	0.0474661	0.089993	0.150828	0
0.55	-0.0928884	0.332246	0.99716	0.123847	-0.552188	0.251027	0.0337132	0.0870814	0.160179	0
0.56	-0.104136	0.329787	0.996287	0.139266	-0.554478	0.254075	0.047786	0.0879341	0.160522	0
0.57	-0.0930629	0.331671	0.996912	0.121759	-0.55263	0.253052	0.0299682	0.0895781	0.16758	0
0.58	-0.0940074	0.331351	0.996774	0.122321	-0.554162	0.250165	0.0284544	0.0912516	0.169466	0
0.59	-0.104749	0.329327	0.996028	0.136775	-0.557027	0.247492	0.0393538	0.0947308	0.164829	0
0.6	-0.0940686	0.331499	0.996776	0.119661	-0.556188	0.246889	0.0209714	0.0967186	0.166307	0
0.61	-0.104725	0.329634	0.996127	0.134648	-0.559838	0.245763	0.0325575	0.0981646	0.164238	0
0.62	-0.0928631	0.332316	0.996732	0.115325	-0.558278	0.244937	0.0141059	0.0983343	0.175456	0
0.63	-0.0930531	0.332404	0.996582	0.11402	-0.559161	0.244083	0.0148845	0.0937877	0.181841	0
0.64	-0.0941232	0.332232	0.996527	0.113286	-0.55854	0.242798	0.0156004	0.0907173	0.184104	0
0.65	-0.105147	0.33021	0.99581	0.127157	-0.559747	0.242773	0.0286682	0.090999	0.181088	0
0.66	-0.0941671	0.332396	0.996328	0.108542	-0.556927	0.240749	0.013171	0.0880057	0.186937	0
0.67	-0.0951081	0.332106	0.996135	0.109207	-0.558874	0.237974	0.0140293	0.0850065	0.189241	0
0.68	-0.0961888	0.33182	0.996045	0.110332	-0.561153	0.237114	0.014805	0.08231	0.190616	0
0.69	-0.0969029	0.331833	0.99608	0.110156	-0.562888	0.237032	0.0132446	0.0818907	0.192411	0
0.7	-0.0981531	0.331571	0.995985	0.110666	-0.56461	0.237052	0.0120443	0.0833614	0.195236	0
0.71	-0.0994203	0.33121	0.995846	0.111179	-0.56597	0.239153	0.0123841	0.0817898	0.198834	0
0.72	-0.10003	0.330974	0.995719	0.109944	-0.565877	0.241778	0.0127263	0.0785545	0.202327	0
0.73	-0.100286	0.330861	0.995589	0.108528	-0.566462	0.238752	0.0102305	0.0791065	0.200914	0
0.74	-0.101136	0.330774	0.995509	0.107338	-0.566391	0.229024	0.0054094	0.0857028	0.195808	0
0.75	-0.102358	0.330604	0.995526	0.107343	-0.567246	0.226271	0.00182105	0.0912412	0.194526	0
0.76	-0.103176	0.330397	0.995343	0.107241	-0.568646	0.234411	0.000760544	0.0909693	0.19842	0
0.77	-0.104527	0.330153	0.995044	0.106982	-0.569248	0.231918	-0.00184418	0.095303	0.199672	0
0.78	-0.106168	0.329825	0.994741	0.106342	-0.568459	0.224612	-0.00299542	0.0963275	0.200791	0
0.79	-0.107544	0.329571	0.994463	0.104874	-0.566757	0.221396	-0.00337476	0.0950519	0.203411	0
0.8	-0.10901	0.329225	0.994271	0.104575	-0.56647	0.221343	-0.00382001	0.0939449	0.204314	0
0.81	-0.11056	0.328836	0.994145	0.105871	-0.568314	0.221122	-0.004764	0.095223	0.204209	0
0.82	-0.112246	0.328403	0.993934	0.10659	-0.569396	0.219845	-0.00454538	0.0947469	0.206763	0
0.83	-0.114057	0.327926	0.993719	0.105911	-0.56807	0.218697	-0.0043438	0.0939988	0.209978	0
0.84	-0.115071	0.327709	0.993717	0.104281	-0.567098	0.219238	-0.00320951	0.0893375	0.21415	0
0.85	-0.117003	0.327102	0.993426	0.105715	-0.569056	0.219276	-0.00243764	0.0884644	0.216961	0
0.86	-0.119452	0.326369	0.992946	0.10783	-0.57118	0.217965	0.000756396	0.084193	0.22281	0
0.87	-0.121774	0.325566	0.99259	0.109656	-0.572908	0.216784	0.00575255	0.0766663	0.229792	0
0.88	-0.123502	0.324949	0.992347	0.111072	-0.575139	0.215635	0.00762134	0.0731301	0.232488	0
0.89	-0.124457	0.32467	0.992239	0.110452	-0.576086	0.216206	0.00574517	0.0739885	0.2334	0
0.9	-0.124919	0.324586	0.992263	0.108714	-0.576108	0.215247	0.00222509	0.0761566	0.232608	0
0.91	-0.126054	0.324203	0.992279	0.109118	-0.577965	0.209844	-0.000658014	0.0791879	0.229976	0
0.92	-0.1284	0.323238	0.992072	0.113006	-0.583048	0.205091	-0.00019893	0.0797225	0.230421	0
0.93	-0.130804	0.322311	0.991972	0.116994	-0.588197	0.201545	-3.66082e-06	0.0810655	0.229553	0
0.94	-0.132095	0.321732	0.992046	0.11907	-0.592305	0.203168	-0.00106223	0.0820112	0.228418	0
0.95	-0.132994	0.321162	0.992016	0.12075	-0.596699	0.208072	-0.00286125	0.0832689	0.227933	0
0.96	-0.134309	0.320448	0.991839	0.123687	-0.60232	0.20802	-0.0020037	0.0805152	0.231438	0
0.97	-0.136084	0.319504	0.991431	0.128441	-0.609833	0.212035	0.00118928	0.0748482	0.235626	0
0.98	-0.138034	0.318413	0.990996	0.134964	-0.619229	0.218233	0.00397822	0.0697598	0.237697	0
0.99	-0.139352	0.31745	0.990626	0.141161	-0.629083	0.225642	0.00277653	0.0714161	0.236292	0
1	-0.140819	0.316483	0.990314	0.148132	-0.639457	0.239709	-0.000395414	0.0771062	0.23781	0
1.01	-0.142431	0.315595	0.990221	0.155557	-0.650464	0.254407	-0.00250075	0.0803078	0.239477	0
1.02	-0.143974	0.314617	0.990344	0.164213	-0.662747	0.26064	-0.000639177	0.0758796	0.243427	0
1.03	-0.144087	0.314146	0.990391	0.171489	-0.674395	0.267914	0.000153329	0.070343	0.24628	0
1.04	-0.145046	0.312977	0.990457	0.181496	-0.687248	0.278839	0.00110352	0.0668396	0.248575	0
1.05	-0.146791	0.311357	0.990551	0.193964	-0.700963	0.286106	0.00712003	0.0563149	0.253245	0
1.06	-0.149298	0.309536	0.990579	0.20883	-0.715401	0.286198	0.0127086	0.0482668	0.257322	0
1.07	-0.152107	0.307944	0.990368	0.224936	-0.730603	0.286066	0.0171005	0.043012	0.258346	0
1.08	-0.166378	0.303787	0.989853	0.257187	-0.746185	0.289911	0.0344892	0.0418189	0.254524	0
1.09	-0.155085	0.305582	0.99078	0.24966	-0.750183	0.290041	0.0172404	0.0407468	0.259428	0
1.1	-0.167582	0.301814	0.990392	0.280518	-0.763977	0.293078	0.0310822	0.0421393	0.253445	0
1.11	-0.154826	0.303777	0.990981	0.273756	-0.769525	0.297483	0.0115328	0.0427871	0.261564	0
1.12	-0.155181	0.302678	0.990741	0.287933	-0.779325	0.301216	0.00909762	0.0454507	0.267437	0
1.13	-0.155928	0.301493	0.990806	0.302095	-0.786192	0.304446	0.00842329	0.0441464	0.268532	0
1.14	-0.157873	0.300146	0.990935	0.318468	-0.791982	0.305404	0.00990412	0.0421326	0.263914	0
1.15	-0.173735	0.295328	0.990117	0.356262	-0.800572	0.306391	0.0299636	0.0413193	0.254002	0
1.16	-0.176034	0.293295	0.989647	0.371978	-0.801801	0.309844	0.0315405	0.0397326	0.257119	0
1.17	-0.177625	0.291697	0.989441	0.387165	-0.801568	0.310068	0.0313587	0.0402401	0.260671	0
1.18	-0.178241	0.290356	0.989358	0.400885	-0.799554	0.31015	0.0276288	0.0452504	0.260996	0
1.19	-0.178973	0.288893	0.989361	0.414677	-0.795954	0.313127	0.0249256	0.0487269	0.261354	0
1.2	-0.180358	0.287364	0.989471	0.427729	-0.787692	0.317135	0.0245512	0.0486539	0.261863	0
1.21	-0.182563	0.285476	0.989414	0.442281	-0.779088	0.314462	0.0273525	0.0445859	0.26378	0
1.22	-0.185061	0.283572	0.989245	0.456663	-0.769215	0.310204	0.0297472	0.0421632	0.262394	0
1.23	-0.186375	0.282082	0.989183	0.470035	-0.758206	0.31059	0.0312572	0.0391938	0.261413	0
1.24	-0.187868	0.280571	0.988862	0.482726	-0.744766	0.311546	0.0282808	0.0434034	0.262344	0
1.25	-0.189324	0.279103	0.988646	0.493746	-0.727966	0.313951	0.023821	0.0501237	0.259973	0
1.26	-0.191196	0.27737	0.988584	0.504106	-0.708247	0.316116	0.0205673	0.0576199	0.254552	0
1.27	-0.194064	0.274992	0.988218	0.519074	-0.692602	0.314332	0.0252815	0.0525924	0.257014	0
1.28	-0.205641	0.270755	0.987068	0.549846	-0.68339	0.311965	0.0457843	0.0398575	0.256579	0
1.29	-0.198102	0.271125	0.987552	0.545236	-0.657359	0.30849	0.0315952	0.0420061	0.265828	0
1.3	-0.209218	0.267365	0.986555	0.572424	-0.641863	0.302505	0.0464442	0.0387502	0.26288	0
